<?xml version="1.0" encoding="utf-8"?>
<!-- Generator: Adobe Illustrator 26.3.1, SVG Export Plug-In . SVG Version: 6.00 Build 0)  -->
<svg version="1.1" id="Layer_1" xmlns="http://www.w3.org/2000/svg" xmlns:xlink="http://www.w3.org/1999/xlink" x="0px" y="0px"
	 width="470.38px" height="150px" viewBox="0 0 470.38 150" enable-background="new 0 0 470.38 150" xml:space="preserve">
<g>
	<g>
		<path fill="#757575" d="M220.57,22.87h30.32c10.29,0,19.28,2.13,26.95,6.39c7.67,4.26,13.57,10.18,17.69,17.76
			c4.12,7.58,6.18,16.28,6.18,26.11s-2.06,18.53-6.18,26.11c-4.12,7.58-10.01,13.5-17.69,17.76c-7.67,4.26-16.66,6.39-26.95,6.39
			h-30.32V22.87z M250.89,112c11.88,0,21.31-3.41,28.28-10.25c6.97-6.83,10.46-16.37,10.46-28.63c0-12.26-3.49-21.8-10.46-28.63
			c-6.97-6.83-16.4-10.25-28.28-10.25h-18.53V112H250.89z"/>
		<path fill="#757575" d="M320.08,122.53c-4.12-2.06-7.3-4.89-9.54-8.49c-2.25-3.6-3.37-7.7-3.37-12.28c0-7.58,2.85-13.5,8.56-17.76
			c5.71-4.26,12.91-6.39,21.62-6.39c4.3,0,8.3,0.47,12,1.4c3.7,0.94,6.53,2.01,8.49,3.23V77.9c0-5.33-1.87-9.61-5.61-12.84
			c-3.74-3.23-8.47-4.84-14.18-4.84c-4.02,0-7.72,0.87-11.09,2.6c-3.37,1.73-6.04,4.14-8,7.23l-8.98-6.74
			c2.81-4.3,6.67-7.67,11.58-10.11c4.91-2.43,10.36-3.65,16.35-3.65c9.73,0,17.38,2.55,22.95,7.65c5.57,5.1,8.35,12.05,8.35,20.84
			v45.34h-11.37v-10.25h-0.56c-2.06,3.46-5.15,6.41-9.26,8.84c-4.12,2.43-8.75,3.65-13.9,3.65
			C328.88,125.62,324.2,124.59,320.08,122.53z M346.47,112c3.46-2.06,6.22-4.82,8.28-8.28c2.06-3.46,3.09-7.25,3.09-11.37
			c-2.25-1.5-5.01-2.71-8.28-3.65c-3.28-0.93-6.74-1.4-10.39-1.4c-6.55,0-11.49,1.36-14.81,4.07c-3.32,2.72-4.98,6.22-4.98,10.53
			c0,3.93,1.5,7.11,4.49,9.54c2.99,2.43,6.78,3.65,11.37,3.65C339.27,115.09,343.01,114.06,346.47,112z"/>
		<path fill="#757575" d="M381.8,51.99h11.37v11.37h0.56c1.68-4.21,4.54-7.49,8.56-9.83c4.02-2.34,8.42-3.51,13.19-3.51
			c2.06,0,3.79,0.14,5.19,0.42v12.21c-1.59-0.37-3.74-0.56-6.46-0.56c-6.08,0-11.02,2.01-14.81,6.04
			c-3.79,4.02-5.68,9.26-5.68,15.72v39.72H381.8V51.99z"/>
		<path fill="#757575" d="M452.49,123.28c-2.48-0.95-4.56-2.24-6.25-3.86c-1.87-1.81-3.28-3.91-4.21-6.29
			c-0.94-2.38-1.4-5.29-1.4-8.72V61.68h-12.49V50.87h12.49V30.66h11.93v20.21h17.41v10.81h-17.41v39.88c0,4.02,0.75,6.98,2.25,8.9
			c1.78,2.11,4.35,3.16,7.72,3.16c2.71,0,5.33-0.79,7.86-2.39v11.65c-1.4,0.65-2.83,1.12-4.28,1.4c-1.45,0.28-3.3,0.42-5.54,0.42
			C457.65,124.7,454.96,124.23,452.49,123.28z"/>
	</g>
	<g>
		<path fill="#40C4FF" d="M25.66,25.66v79.93c0,7.92,0.99,9.86,4.93,13.82L61.18,150h62.17v-26.64L25.66,25.66z"/>
		<path fill="#29B6F6" d="M25.66,105.59c0,7.92,0.99,9.86,4.93,13.82l3.95,3.95h88.82l-97.7-97.7V105.59z"/>
		<path fill="#01579B" d="M25.66,25.66L1.97,75C1.13,76.79,0,79.91,0,81.91c0,4.31,1.89,8.72,4.93,11.84l25.66,25.66
			c-3.94-3.96-4.93-5.9-4.93-13.82V25.66z"/>
		<path fill="#55C5F8" d="M31.58,120.39c-3.94-3.96-4.93-5.9-4.93-13.82V26.64l-0.99-0.99v79.93c0,7.92,0.99,9.86,4.93,13.82
			l3.95,3.95h0L31.58,120.39z"/>
		<path fill="#01579B" d="M104.61,25.66H25.66l97.7,97.7H150V62.17l-31.58-31.58C113.99,26.14,110.05,25.66,104.61,25.66z"/>
		<path fill="#40C4FF" d="M118.42,30.59L92.76,4.93C90.52,2.68,85.86,0,81.91,0c-3.39,0-6.72,0.68-8.88,1.97L25.66,25.66h78.95
			C110.05,25.66,113.99,26.14,118.42,30.59z"/>
		<polygon fill="#075087" points="149.01,61.18 149.01,122.37 122.37,122.37 123.36,123.36 150,123.36 150,62.17 		"/>
		<path fill="#3379AE" d="M118.42,30.59c-4.89-4.89-8.9-4.93-14.8-4.93H25.66l0.99,0.99h76.97C106.57,26.64,114,26.15,118.42,30.59
			L118.42,30.59z"/>
	</g>
</g>
</svg>
